<?xml version="1.0" encoding="utf-8"?>
<!-- Generator: Adobe Illustrator 18.1.1, SVG Export Plug-In . SVG Version: 6.00 Build 0)  -->
<!DOCTYPE svg PUBLIC "-//W3C//DTD SVG 1.1//EN" "http://www.w3.org/Graphics/SVG/1.1/DTD/svg11.dtd">
<svg version="1.1" id="Layer_1" xmlns="http://www.w3.org/2000/svg" xmlns:xlink="http://www.w3.org/1999/xlink" x="0px" y="0px"
	 width="500px" height="500px" viewBox="2112 170.9 500 500" enable-background="new 2112 170.9 500 500" xml:space="preserve">
<path d="M2554.9,316.5c-14.4,6-28.8,10.8-45.7,12c16.8-9.6,28.8-25.2,34.9-43.3c-15.6,9.6-32.5,15.6-50.5,19.2
	c-13.2-15.6-34.9-25.2-56.5-25.2c-43.3,0-79.3,34.9-79.3,79.3c0,6,1.2,12,2.4,18c-66.1-3.6-123.8-34.9-163.5-82.9
	c-7.2,12-10.8,25.2-10.8,39.7c0,27.6,14.4,51.7,34.9,66.1c-13.2,0-25.2-3.6-36.1-9.6v1.2c0,38.5,27.6,69.7,63.7,76.9
	c-7.2,1.2-13.2,2.4-20.4,2.4c-4.8,0-9.6,0-14.4-1.2c9.6,31.3,39.7,54.1,73.3,55.3c-26.4,21.6-61.3,33.7-98.6,33.7
	c-6,0-13.2,0-19.2-1.2c34.9,22.8,76.9,36.1,121.4,36.1c145.4,0,224.8-120.2,224.8-224.8c0-3.6,0-7.2,0-9.6
	C2530.9,345.3,2544.1,332.1,2554.9,316.5z"/>
</svg>
