<?xml version="1.0" encoding="utf-8"?>
<!-- Generator: Adobe Illustrator 18.1.1, SVG Export Plug-In . SVG Version: 6.00 Build 0)  -->
<!DOCTYPE svg PUBLIC "-//W3C//DTD SVG 1.1//EN" "http://www.w3.org/Graphics/SVG/1.1/DTD/svg11.dtd">
<svg version="1.1" id="Layer_1" xmlns="http://www.w3.org/2000/svg" xmlns:xlink="http://www.w3.org/1999/xlink" x="0px" y="0px"
	 width="500px" height="500px" viewBox="-345 170.9 500 500" enable-background="new -345 170.9 500 500" xml:space="preserve">
<g>
	<path d="M-86.4,362.7l7.2,37.4h-13l-7.2-40.2h-2.9h-1.5c-36-4.3-96.3-13-99.2-13c-67.5,0-122.2,54.6-122.2,122.2
		s54.6,122.2,122.2,122.2c63.2,0,116.5-48.9,120.7-110.7l199.8-20.1l17.3-64.7L-86.4,362.7z M99,438.8L-103.6,459l-1.5,15.8
		c-2.9,51.8-47.5,93.5-99.2,93.5c-54.6,0-99.2-44.5-99.2-99.2c0-54.6,44.5-99.2,99.2-99.2c5.7,0,46,5.7,84.8,11.5l7.2,41.7h59
		l-5.7-33l165.3,24.4L99,438.8z"/>
	<path d="M-115.7,282.8l17.1-19.6l45.9,40.1l-17.1,19.6L-115.7,282.8z"/>
	<path d="M-24,235.7H2v61h-26V235.7z"/>
	<path d="M79.4,260.5L99.4,277l-38.8,47.1l-20.1-16.5L79.4,260.5z"/>
</g>
</svg>
