<?xml version="1.0" encoding="utf-8"?>
<!-- Generator: Adobe Illustrator 16.0.0, SVG Export Plug-In . SVG Version: 6.00 Build 0)  -->
<!DOCTYPE svg PUBLIC "-//W3C//DTD SVG 1.1//EN" "http://www.w3.org/Graphics/SVG/1.1/DTD/svg11.dtd">
<svg version="1.1" id="Layer_1" xmlns="http://www.w3.org/2000/svg" xmlns:xlink="http://www.w3.org/1999/xlink" x="0px" y="0px"
	 width="1000px" height="774.954px" viewBox="0 0 1000 774.954" enable-background="new 0 0 1000 774.954" xml:space="preserve">
<g>
	<path d="M525.792,746.011c0,13.705,5.95,25.167,22.612,25.167c16.615,0,22.612-11.462,22.612-25.167
		c0-13.683-5.997-25.146-22.612-25.146C531.742,720.864,525.792,732.328,525.792,746.011 M513.663,746.011
		c0-19.503,18.971-28.833,34.741-28.833c15.682,0,34.698,9.33,34.698,28.833c0,19.525-19.017,28.854-34.698,28.854
		C532.634,774.865,513.663,765.536,513.663,746.011"/>
	<polyline points="455.107,773.488 432.672,729.327 425.611,769.579 434.585,771.356 434.585,773.488 410.77,773.488 
		410.77,771.356 420.32,769.579 429.429,718.444 438.45,718.444 459.683,760.582 483.099,718.444 490.828,718.444 500.202,769.579 
		510.375,771.356 510.375,773.488 479.276,773.488 479.276,771.356 488.873,769.579 482.342,729.151 458.131,773.488 	"/>
	<polyline points="596.652,717.821 603.271,717.821 647.921,759.982 647.921,722.397 637.748,720.62 637.748,718.488 
		660.806,718.488 660.806,720.62 652.854,722.397 652.854,774.178 648.055,774.178 601.539,730.684 601.539,769.579 612.023,771.4 
		612.023,773.488 587.544,773.488 587.544,771.4 596.652,769.579 	"/>
	<path d="M297.128,770.179v-23.569h34.564v-3.776h-34.564v-21.146h1.556c10.215,0,33.319,3.089,33.319,3.089v-6.331h-55.578v2.176
		l9.819,1.777v47.138l-9.819,1.821v2.132h56.377v-6.953c0,0-26.435,3.644-33.319,3.644"/>
	<path d="M380.247,748.166v2.132l10.665,2.176v17.373c-3.377,0.775-7.418,1.287-13.727,1.287c-15.64,0-23.727-9.773-23.727-24.568
		c0-19.746,11.106-25.611,24.168-25.611c8.886,0,17.814,3.266,22.436,5.953l2.179-6.598c-6.889-1.777-16.305-3.176-25.636-3.176
		c-14.437,0-35.317,7.374-35.317,29.922c0,17.837,17.191,27.898,35.897,27.898c7.995,0,13.281-0.688,24.21-2.91v-19.57l8.621-2.176
		v-2.132"/>
	<path d="M721.713,718.488v6.419c0,0-14.438-3.131-21.456-3.131h-1.914v47.803l10.178,1.821v2.132h-31.1V771.4l10.173-1.821v-47.803
		h-1.867c-7.064,0-21.502,3.131-21.502,3.131v-6.419"/>
	<path d="M831.801,601.024c13.239,0,39.497-5.264,39.497-5.264v10.508h-68.194v-3.911l12.662-2.288v-58.865l-12.662-2.311v-3.953
		h39.451v3.997l-12.751,2.312v59.775"/>
	<polyline points="404.416,534.918 404.416,538.984 417.566,541.293 417.566,600.025 404.416,602.357 404.416,606.269 
		445.957,606.269 445.957,602.357 432.76,600.025 432.76,541.293 445.957,538.984 445.957,534.918 	"/>
	<polyline points="582.745,565.373 617.221,599.538 626.994,602.357 626.994,606.222 603.718,606.222 568.531,568.504 
		608.47,534.873 623.841,534.873 623.841,538.894 614.021,541.204 	"/>
	<polyline points="532.765,534.918 532.765,538.894 545.872,541.293 545.872,600.025 532.765,602.357 532.765,606.269 
		574.259,606.269 574.259,602.357 561.021,600.025 561.021,541.293 574.259,538.894 574.259,534.918 	"/>
	<polyline points="745.793,534.918 745.793,538.984 758.942,541.293 758.942,600.025 745.793,602.357 745.793,606.269 
		787.329,606.269 787.329,602.357 774.137,600.025 774.091,541.293 787.287,538.984 787.287,534.918 	"/>
	<path d="M345.019,600.98h-13.996v-60.643h16.216c18.218,0,28.832,10.196,28.832,29.767
		C376.071,593.562,362.303,600.98,345.019,600.98 M350.528,534.918l-47.626-0.045v4.111l13.238,2.309v58.82l-13.062,2.334v3.774
		l44.872-0.044c28.433,0,43.984-13.238,43.984-37.14C391.934,544.291,374.742,534.918,350.528,534.918"/>
	<path d="M519.172,586.52c0-8.063-2.09-13.373-9.819-17.97c-5.151-3.044-13.062-5.82-23.411-8.774
		c-8.575-2.866-11.106-5.597-11.106-10.24c0-5.644,3.995-9.197,17.503-9.197c11.817,0,19.193,3.909,22.7,6.376l1.11-9.553
		c0,0-11.548-2.775-26.342-2.775c-18.348,0-27.592,7.864-27.592,18.792c0,8.686,4.756,14.971,14.976,18.838
		c14.349,5.686,28.122,7.861,28.122,17.813c0,8.464-6.489,11.019-19.017,11.019c-12.704,0-22.612-6.376-22.612-6.376l-1.598,9.463
		c0,0,11.771,2.777,26.612,2.777h-0.046C509.618,606.668,519.172,597.382,519.172,586.52"/>
	<path d="M286.109,599.981l-25.325-29.078c13.197-1.621,19.993-8.573,19.993-18.192c0-11.128-8.975-17.793-25.632-17.793
		l-4.71-0.045h-45.006v4.064l13.15,2.312v58.776l-12.97,2.376v3.82h41.314v-3.774l-13.15-2.378V540.25h13.461
		c11.106,0,17.461,4.508,17.461,13.194c0,10.419-5.375,15.661-17.549,15.749h-4.487l29.013,37.028h24.522v-3.82"/>
	<path d="M122.886,570.683c0-11.685,3.642-31.343,28.08-31.343c24.475,0,28.121,19.658,28.121,31.343
		c0,11.705-3.646,31.343-28.121,31.343C126.528,602.025,122.886,582.388,122.886,570.683 M106.136,570.683
		c0,24.256,23.146,37.362,44.83,37.362c21.679,0,44.825-13.106,44.825-37.362c0-24.28-23.146-37.342-44.825-37.342
		C129.282,533.341,106.136,546.402,106.136,570.683"/>
	<polyline points="11.599,534.074 11.599,600.025 0,602.313 0,606.269 32.432,606.269 32.432,602.313 19.105,599.981 
		19.105,552.578 77.392,607.091 84.369,607.091 84.369,541.116 94.495,538.85 94.495,534.94 63.842,534.94 63.842,538.894 
		76.858,541.16 76.858,586.831 20.88,534.074 	"/>
	<polyline points="964.372,534.873 934.959,587.653 908.26,534.873 895.866,534.873 884.313,599.938 875.074,602.269 
		875.074,606.222 903.596,606.222 903.596,602.269 892.267,600.025 900.841,551.356 928.651,606.222 933.315,606.222 
		963.438,551.089 971.345,599.981 959.174,602.269 959.174,606.222 1000,606.222 1000,602.269 987.03,599.938 975.079,534.873 	"/>
	<path d="M695.723,540.294c12.84,0,43.005,4.044,43.005,4.044v-9.465h-71.971v4.021l12.351,2.267v58.821l-12.351,2.332v3.908h39.938
		v-3.908l-12.259-2.332V572.06h34.03v-6.108h-34.03v-25.657"/>
	<path d="M414.857,17.726l-0.399,0.778l-0.488,5.442l4.13-3.709l0.446-0.934l-0.98-2.666L414.857,17.726z M365.364,15.594
		l-2.174,1.577v3.642l7.641-1.998l2.178-3.221H365.364 M367.143,45.069c-5.375-1.998-18.302-2.376-25.014-4.332
		c-5.063-1.4-6.127-4.042-7.994-7.953l-0.757-1.644l2.889-1.867l-0.799-5.417l-4.311-0.311l-0.223-0.602
		c8.751-5.219,29.455-8.861,29.455-8.861l3.065-3.646c2.002-0.82,9.42-1.821,18.794-2.599c9.328-0.752,18.571-0.441,20.392,0.202
		l6.619,2.952l8.974-0.375c5.774,1.64,5.909,4.239,6.666,5.063c27.764,7.641,43.316,10.329,67.615,15.106
		c7.775,1.396,12.351,2.729,18.57,6.687c5.375,2.817,7.642,5.261,12.886,6.396c57.177,12.238,71.079,21.17,83.742,38.051
		c11.687,15.551,12.527,51.755-6.973,81.324c-8.134,12.284-24.749,41.759-29.102,43.051l-1.82-0.467
		c-11.372-4.912-23.37-8.419-36.032-10.329l11.952-7.599c2.267-1.666,5.866-18.836,7.241-29.19
		c2.62-19.614,1.909-20.703-2.843-24.387c-4.575-3.512-11.683-7.864-17.638-11.775l-3.6,0.799l0.181,9.243
		c0.089,14.702,0.841,32.075,1.287,43.316c0.354,8.507-1.598,15.147-4.752,18.592c-4.622-0.488-9.197-0.668-13.996-0.668
		c-10.483,0-20.749,1.135-30.611,3.221l9.597-10.551c2.443-3.818,1.11-7.284,0.488-11.548c-2.885-20.661-8.44-39.274-25.102-67.841
		l-3.953-6.687C462.038,100.425,385.445,51.802,367.143,45.069 M622.507,413.012c-6.173-1.089-21.637-3.554-43.004-5.642
		c7.642-20.571,13.15-45.715,13.15-75.304l-0.354-10.084c29.942,4.508,45.624,10.774,51.798,13.684l0.093,4.819
		C644.19,367.165,636.238,392.086,622.507,413.012 M540.81,469.789c9.996-10.018,24.521-28.301,35.674-54.777
		c18.836,1.732,33.231,3.864,41.003,5.086C598.873,444.754,571.908,462.726,540.81,469.789 M405.349,419.52
		c7.599-1.134,21.015-2.91,38.252-4.376c11.863,25.701,27.322,43.938,38.475,54.422C450.843,462.459,423.878,444.267,405.349,419.52
		 M379.318,335.578c5.82-2.956,20.081-8.642,47.222-13.15l-0.311,11.506c0,28.719,5.82,53.286,14.13,73.657
		c-19.505,1.732-33.812,3.776-39.939,4.731c-13.461-20.834-21.325-45.402-21.325-71.837L379.318,335.578 M483.01,211.069
		c-5.778,4.512-12.797,10.24-19.816,17.793c-12.974,1.447-23.281,3.646-31.275,5.867C446.755,223.399,464.17,215.291,483.01,211.069
		 M584.255,229.53l10.665,7.885c-9.285-2.775-22.259-5.841-39.32-8.02c-6.085-7.376-12.217-13.55-17.768-18.924
		C554.67,213.937,570.352,220.489,584.255,229.53 M514.063,404.126v-87.519c29.056,0.13,52.425,1.863,70.861,4.332l0.354,11.127
		c0,29.766-5.64,54.557-13.369,74.658C555.158,405.236,535.477,404.126,514.063,404.126 M433.917,321.38
		c18.613-2.641,42.517-4.643,72.816-4.773v87.519c-21.683,0.243-41.763,1.333-58.732,2.754
		c-8.398-19.946-14.437-44.404-14.437-72.946C433.563,329.488,433.693,325.333,433.917,321.38 M506.199,233.773h0.533v74.835
		c-29.723,0.088-53.399,1.867-72.105,4.441c3.865-37.651,17.902-61.44,32.167-77.324
		C477.943,234.594,490.962,233.773,506.199,233.773 M514.063,233.816c14.261,0.311,26.877,1.312,37.854,2.599
		c14.659,18.239,28.433,42.605,32.297,76.235c-18.571-2.355-41.629-3.995-70.15-4.042V233.816z M525.216,208.604
		c5.908,5.421,12.704,11.973,19.723,19.702c-9.239-0.908-19.504-1.489-30.876-1.774v-18.55L525.216,208.604 M497.359,208.693
		l9.374-0.623v18.416h-0.533c-11.683,0-22.125,0.467-31.453,1.177c5.24-4.865,10.261-8.865,14.525-12.174L497.359,208.693
		 M417.167,247.744c5.909-2.776,18.129-7.376,38.786-10.572c-13.285,16.792-25.455,40.872-28.832,77.034
		c-24.215,3.734-39.051,8.684-47.227,12.174C383.136,295.904,396.732,268.468,417.167,247.744 M495.979,472.1
		c-7.864-5.465-29.097-24.924-44.602-57.622c16.169-1.243,35.098-2.244,55.355-2.465v60.862L495.979,472.1 M527.078,472.1
		c-4.264,0.421-8.616,0.775-13.016,0.775v-60.862c20.035,0,38.652,0.999,54.646,2.265
		C551.604,453.085,527.479,471.744,527.078,472.1 M643.521,326.536c-8.751-3.646-24.968-8.974-51.802-12.927
		c-3.554-32.479-15.905-57.181-29.632-75.882c29.098,4.508,44.203,11.33,46.604,12.461
		C627.705,270.625,640.414,297.191,643.521,326.536 M451.289,120.485c6.396,4.596,14.483,11.573,14.483,11.661
		c1.552,3.133,7.149,15.905,8.974,22.882c2.708,10.371,7.418,23.188,6.308,27.188c-1.11,4.108-7.019,7.506-11.329,17.747
		l-11.729,4.045c2.267-6.733,6.308-11.043,7.418-16.552C466.613,181.816,464.082,172.442,451.289,120.485 M579.057,210.203h0.312
		c10.665-9.239,15.375-20.148,24.392-32.563c28.567-39.409,31.145-78.216,15.862-100.139
		c-12.309-17.659-26.657-31.566-85.566-41.318c-3.688-0.623-6.309-1.775-11.775-5.084c-8.752-5.379-12.082-5.778-24.522-7.776
		c-27.991-4.378-40.119-6.821-70.461-15.282l-6.085-4.819l-8.575-0.156l-4.975-2.313c-2.624-0.866-15.463-0.955-24.791-0.42
		c-9.197,0.689-18.882,2.022-22.705,3.154l-3.776,3.776c-2.309,0.4-19.101,4.441-27.142,8.554c-6.266,3.129-7.019,4.82-5.732,10.194
		c1.156,5.353,2.889,11.039,6.485,15.194l8.575,5.219c11.464,2.822,21.813,4.109,24.925,5.379
		c13.192,4.861,70.991,43.492,72.593,50.179c5.24,22.747,18.214,80.924,17.457,86.341c-0.929,6.287-6.526,11.33-12.347,23.483h0.042
		c-45.494,24.921-76.235,73.19-76.235,128.681c0,80.989,65.663,146.674,146.608,146.674c81.034,0,146.697-65.685,146.697-146.674
		C658.316,283.818,626.107,234.594,579.057,210.203"/>
</g>
</svg>
