<?xml version="1.0" encoding="UTF-8"?><!DOCTYPE svg PUBLIC "-//W3C//DTD SVG 1.1//EN" "http://www.w3.org/Graphics/SVG/1.1/DTD/svg11.dtd"><svg xmlns="http://www.w3.org/2000/svg"><symbol id="t_sound-off" viewBox="256 170.9 500 500"><path d="M713.1 379.5l-17.5-17.6-56.6 56.6-56.6-56.6-17.6 17.6 56.6 56.5-56.6 56.6 17.6 19L639 455l56.6 56.6 17.5-19-55.3-56.6M492 279.7c0-6.7-5.4-13.5-13.5-13.5h-25.6c-1.4 0-2.7 0-4 1.4-1.4 0-4 1.4-5.4 2.7L374.8 339l-5.4 5.4h-72.9c-6.7 0-13.5 5.4-13.5 13.5v156.3c0 6.7 5.4 13.5 13.5 13.5h72.7l33.7 33.7 40.4 40.4c5.4 5.4 12.1 4 18.8 4h16.2c6.7 0 13.5-5.4 13.5-13.5v-31-75.5-91.7-78.2c.2-10.6.2-22.7.2-36.2zm-33.7 300.6C439.5 561.5 422 543.9 403 525l-14.8-14.8c-2.7-2.7-5.4-6.7-9.5-8.1-4-1.4-10.8-1.4-14.8-1.4h-55.3v-40.4-84.9-6.7H373.3c5.4 0 9.5-2.7 13.5-6.7l12.1-12.1 37.8-37.8 21.6-21.6h8.1V579c-4 1.3-5.4 1.3-8.1 1.3z"/></symbol><symbol id="t_sound-on" viewBox="256 -393.5 500 500"><path d="M478.5-298.2h-25.6c-1.4 0-2.7 0-4 1.4-1.4 0-4 1.4-5.4 2.7l-68.7 68.7-5.4 5.4h-72.9c-6.7 0-13.5 5.4-13.5 13.5v156.3c0 6.7 5.4 13.5 13.5 13.5h72.7L402.9-3l40.4 40.4c5.4 5.4 12.1 4 18.8 4h16.2c6.7 0 13.5-5.4 13.5-13.5v-31-75.5-91.7-78.2c.2-10.7.2-22.8.2-36.3 0-6.6-5.4-13.4-13.5-13.4zm-12 41.9v271c-4.1 1.2-5.5 1.2-8.2 1.2C439.5-2.9 422-20.5 403-39.4l-14.8-14.8c-2.7-2.7-5.4-6.7-9.5-8.1-4-1.4-10.8-1.4-14.8-1.4h-55.3v-40.4-84.9-6.7H373.3c5.4 0 9.5-2.7 13.5-6.7l12.1-12.1 37.8-37.8 21.6-21.6h8.1c.1 5.4.1 12.1.1 17.6zM538-202.9h29v149.2h-29zM603.6-229.4H633v202.1h-29.4zM671.6-250.4H701V-6.2h-29.4z"/></symbol></svg>