<?xml version="1.0" encoding="utf-8"?>
<!-- Generator: Adobe Illustrator 18.1.1, SVG Export Plug-In . SVG Version: 6.00 Build 0)  -->
<!DOCTYPE svg PUBLIC "-//W3C//DTD SVG 1.1//EN" "http://www.w3.org/Graphics/SVG/1.1/DTD/svg11.dtd">
<svg version="1.1" id="Layer_1" xmlns="http://www.w3.org/2000/svg" xmlns:xlink="http://www.w3.org/1999/xlink" x="0px" y="0px"
	 width="500px" height="500px" viewBox="256 170.9 500 500" enable-background="new 256 170.9 500 500" xml:space="preserve">
<g>
	<polygon points="713.1,379.5 695.6,361.9 639,418.5 582.4,361.9 582.4,361.9 564.8,379.5 621.4,436 564.8,492.6 582.4,511.6 
		639,455 695.6,511.6 713.1,492.6 657.8,436 	"/>
	<path d="M492,279.7c0-6.7-5.4-13.5-13.5-13.5s-17.5,0-25.6,0c-1.4,0-2.7,0-4,1.4c-1.4,0-4,1.4-5.4,2.7
		c-22.9,22.9-45.8,45.8-68.7,68.7c-1.4,1.4-4,4-5.4,5.4c-21.6,0-41.8,0-63.4,0c-2.7,0-6.7,0-9.5,0c-6.7,0-13.5,5.4-13.5,13.5
		c0,17.5,0,35.1,0,52.6c0,28.3,0,56.6,0,84.9c0,6.7,0,13.5,0,18.8c0,6.7,5.4,13.5,13.5,13.5c22.9,0,45.8,0,68.7,0c1.4,0,2.7,0,4,0
		c10.8,10.8,22.9,22.9,33.7,33.7c13.5,13.5,26.9,26.9,40.4,40.4c5.4,5.4,12.1,4,18.8,4c5.4,0,10.8,0,16.2,0
		c6.7,0,13.5-5.4,13.5-13.5c0-10.8,0-20.2,0-31c0-25.6,0-49.9,0-75.5c0-31,0-60.6,0-91.7c0-25.6,0-52.6,0-78.2
		C492,305.3,492,293.2,492,279.7L492,279.7z M458.3,580.3C439.5,561.5,422,543.9,403,525c-5.4-5.4-9.5-9.5-14.8-14.8
		c-2.7-2.7-5.4-6.7-9.5-8.1c-4-1.4-10.8-1.4-14.8-1.4c-8.1,0-16.2,0-24.3,0c-10.8,0-20.2,0-31,0c0-13.5,0-26.9,0-40.4
		c0-28.3,0-56.6,0-84.9c0-2.7,0-4,0-6.7c8.1,0,16.2,0,22.9,0c13.5,0,28.3,0,41.8,0c5.4,0,9.5-2.7,13.5-6.7c4-4,8.1-8.1,12.1-12.1
		c12.1-12.1,25.6-25.6,37.8-37.8c6.7-6.7,14.8-14.8,21.6-21.6c2.7,0,5.4,0,8.1,0c0,5.4,0,12.1,0,17.5c0,25.6,0,49.9,0,75.5
		c0,31,0,60.6,0,91.7c0,25.6,0,52.6,0,78.2c0,8.1,0,17.5,0,25.6C462.4,580.3,461,580.3,458.3,580.3z"/>
</g>
</svg>
