<?xml version="1.0" encoding="utf-8"?>
<!-- Generator: Adobe Illustrator 18.1.1, SVG Export Plug-In . SVG Version: 6.00 Build 0)  -->
<!DOCTYPE svg PUBLIC "-//W3C//DTD SVG 1.1//EN" "http://www.w3.org/Graphics/SVG/1.1/DTD/svg11.dtd">
<svg version="1.1" id="Layer_1" xmlns="http://www.w3.org/2000/svg" xmlns:xlink="http://www.w3.org/1999/xlink" x="0px" y="0px"
	 width="500px" height="500px" viewBox="256 -393.5 500 500" enable-background="new 256 -393.5 500 500" xml:space="preserve">
<g>
	<path d="M478.5-298.2c-8.1,0-17.5,0-25.6,0c-1.4,0-2.7,0-4,1.4c-1.4,0-4,1.4-5.4,2.7c-22.9,22.9-45.8,45.8-68.7,68.7
		c-1.4,1.4-4,4-5.4,5.4c-21.6,0-41.8,0-63.4,0c-2.7,0-6.7,0-9.5,0c-6.7,0-13.5,5.4-13.5,13.5c0,17.5,0,35.1,0,52.6
		c0,28.3,0,56.6,0,84.9c0,6.7,0,13.5,0,18.8c0,6.7,5.4,13.5,13.5,13.5c22.9,0,45.8,0,68.7,0c1.4,0,2.7,0,4,0
		C379.9-26,392-13.9,402.9-3c13.5,13.5,26.9,26.9,40.4,40.4c5.4,5.4,12.1,4,18.8,4c5.4,0,10.8,0,16.2,0c6.7,0,13.5-5.4,13.5-13.5
		c0-10.8,0-20.2,0-31c0-25.6,0-49.9,0-75.5c0-31,0-60.6,0-91.7c0-25.6,0-52.6,0-78.2c0.2-10.7,0.2-22.8,0.2-36.3
		C492-291.4,486.6-298.2,478.5-298.2z M466.5-256.3c0,25.6,0,49.9,0,75.5c0,31,0,60.6,0,91.7c0,25.6,0,52.6,0,78.2
		c0,8.1,0,17.5,0,25.6c-4.1,1.2-5.5,1.2-8.2,1.2C439.5-2.9,422-20.5,403-39.4c-5.4-5.4-9.5-9.5-14.8-14.8c-2.7-2.7-5.4-6.7-9.5-8.1
		c-4-1.4-10.8-1.4-14.8-1.4c-8.1,0-16.2,0-24.3,0c-10.8,0-20.2,0-31,0c0-13.5,0-26.9,0-40.4c0-28.3,0-56.6,0-84.9c0-2.7,0-4,0-6.7
		c8.1,0,16.2,0,22.9,0c13.5,0,28.3,0,41.8,0c5.4,0,9.5-2.7,13.5-6.7c4-4,8.1-8.1,12.1-12.1c12.1-12.1,25.6-25.6,37.8-37.8
		c6.7-6.7,14.8-14.8,21.6-21.6c2.7,0,5.4,0,8.1,0C466.5-268.5,466.5-261.8,466.5-256.3z"/>
	<rect x="538" y="-202.9" width="29" height="149.2"/>
	<rect x="603.6" y="-229.4" width="29.4" height="202.1"/>
	<rect x="671.6" y="-250.4" width="29.4" height="244.2"/>
</g>
</svg>
