<?xml version="1.0" encoding="utf-8"?>
<!-- Generator: Adobe Illustrator 18.1.1, SVG Export Plug-In . SVG Version: 6.00 Build 0)  -->
<!DOCTYPE svg PUBLIC "-//W3C//DTD SVG 1.1//EN" "http://www.w3.org/Graphics/SVG/1.1/DTD/svg11.dtd">
<svg version="1.1" id="Layer_1" xmlns="http://www.w3.org/2000/svg" xmlns:xlink="http://www.w3.org/1999/xlink" x="0px" y="0px"
	 width="500px" height="500px" viewBox="888 170.9 500 500" enable-background="new 888 170.9 500 500" xml:space="preserve">
<path d="M1235.4,354c-4.9-2.9-11.2-1.1-14,3.8l-63.3,57.8L1108,380c-2.6-3.8-7.6-5.4-12.4-4.5c-0.9,0.1-1.7,0.4-2.6,0.7
	c-0.2,0.1-0.4,0.1-0.6,0.2c-0.2,0.1-0.3,0.2-0.5,0.3c-0.7,0.4-1.4,0.9-2,1.5c-0.6,0.6-1.1,1.1-1.5,1.7c-0.1,0.1-0.2,0.2-0.3,0.4
	l-51.3,61.3c-2.8,4.9-1.1,11.3,3.8,14.1c4.9,2.9,11.2,1.2,14-3.8l45.2-54l47.7,34c1.1,1.6,2.6,2.6,4.4,3.5c0.6,0.6,0.7,1.5,1.5,1.9
	c4.9,2.8,11.2,1.1,14-3.8l71.8-65.5C1242,363.1,1240.3,356.8,1235.4,354z M1291.8,293.1H984.2c-5.7,0-10.3,4.6-10.3,10.3
	c0,5.7,4.6,10.3,10.3,10.3h10.3v184.6c0,11.3,9.2,20.5,20.5,20.5h88.6l-25.5,47c-3.1,4.7-1.3,10.6,4.2,13.3s12.4,1.1,15.6-3.6
	l28.5-52.5c0.9-1.3,1.3-2.8,1.4-4.3h20.8c0.1,1.5,0.5,2.9,1.4,4.3l28.5,52.5c3.2,4.7,10.1,6.3,15.6,3.6c5.5-2.7,7.3-8.7,4.2-13.3
	l-25.5-47h88.5c11.3,0,20.5-9.2,20.5-20.5V313.7h10.3c5.6,0,10.3-4.6,10.3-10.3C1302.1,297.7,1297.4,293.1,1291.8,293.1z M1261,488
	c0,5.6-4.6,10.3-10.3,10.3h-225.6c-5.7,0-10.3-4.6-10.3-10.3V323.9c0-5.7,4.6-10.3,10.3-10.3h225.6c5.6,0,10.3,4.6,10.3,10.3V488z"
	/>
</svg>
