<?xml version="1.0" encoding="utf-8"?>
<!-- Generator: Adobe Illustrator 18.1.1, SVG Export Plug-In . SVG Version: 6.00 Build 0)  -->
<!DOCTYPE svg PUBLIC "-//W3C//DTD SVG 1.1//EN" "http://www.w3.org/Graphics/SVG/1.1/DTD/svg11.dtd">
<svg version="1.1" id="Layer_1" xmlns="http://www.w3.org/2000/svg" xmlns:xlink="http://www.w3.org/1999/xlink" x="0px" y="0px"
	 width="500px" height="500px" viewBox="1506 170.9 500 500" enable-background="new 1506 170.9 500 500" xml:space="preserve">
<g>
	<path d="M1674.6,370.6c-24.8,0-45.5,20.6-45.5,46.8c0,26.2,20.6,46.8,45.5,46.8s45.5-20.6,45.5-46.8
		C1720,391.2,1699.4,370.6,1674.6,370.6z M1674.6,442.2c-13.8,0-24.8-11-24.8-24.8c0-13.8,11-24.8,24.8-24.8s24.9,11,24.9,24.8
		C1699.4,431.1,1688.4,442.2,1674.6,442.2z"/>
	<path d="M1951.5,337.5c-11-12.4-27.6-19.3-44.1-19.3h-286.6c-16.6,0-33.1,6.9-45.5,19.3c-12.4,12.4-17.9,28.9-17.9,46.8v162.6
		h413.4v-164C1968,366.4,1962.5,349.8,1951.5,337.5z M1947.4,526.2h-370.6V384.3c0-12.4,4.1-23.5,12.4-31.7
		c8.3-8.3,19.3-12.4,30.3-12.4h286.6c23.5,0,41.4,19.3,41.4,44.1L1947.4,526.2L1947.4,526.2z"/>
	<path d="M1853.7,370.6c-24.9,0-45.5,20.6-45.5,46.8c0,26.2,20.6,46.8,45.5,46.8s45.5-20.6,45.5-46.8S1879.8,370.6,1853.7,370.6z
		 M1853.7,442.2c-13.8,0-24.8-11-24.8-24.8c0-13.8,11-24.8,24.8-24.8s24.8,11,24.8,24.8C1878.5,431.1,1867.5,442.2,1853.7,442.2z"/>
	<path d="M1878.5,566.2H1636c-6.9,0-12.4,5.5-12.4,12.4c0,6.9,5.5,12.4,12.4,12.4h242.5c6.9,0,12.4-5.5,12.4-12.4
		C1890.8,571.7,1885.4,566.2,1878.5,566.2z"/>
	<path d="M1839.9,613h-162.5c-6.9,0-12.4,5.5-12.4,12.4c0,6.9,5.5,12.4,12.4,12.4h162.5c6.9,0,12.4-5.5,12.4-12.4
		C1852.3,618.5,1846.8,613,1839.9,613z"/>
	<path d="M1749,245.2v44.1c0,8.3,4.1,13.8,12.4,13.8c6.9,0,12.4-5.5,12.4-13.8v-44.1c8.3-4.1,13.8-12.4,13.8-22
		c0-13.8-11-26.2-24.8-26.2c-13.8,0-24.8,11-24.8,26.2C1736.5,232.7,1740.7,241,1749,245.2z"/>
</g>
</svg>
